#!OML:ASF E:\Style4\Style4.ASF
:FULLY-SPECIFIED
:DEGREES
3439
root -0.166654 18.2295 -0.204194 8.60444 2.35248 2.73929
lowerback 9.5917 1.75517 0.173341
upperback 3.56445 2.35768 0.702668
thorax -1.69781 1.17182 0.372044
lowerneck 5.77275 -4.56828 -5.27717
upperneck 4.24211 -6.4324 4.64578
head 0.693845 -3.27748 2.43116
rclavicle 5.96354e-016 -1.66979e-014
rhumerus 48.2393 -43.187 -19.5227
rradius 39.0488
rwrist 7.88276
rhand 29.8566 3.52851
rfingers 7.12502
rthumb 53.578 -15.5909
lclavicle 5.96354e-016 -1.66979e-014
lhumerus 35.8861 31.9748 1.34286
lradius 47.2628
lwrist 11.0923
lhand 28.7983 35.6749
lfingers 7.12502
lthumb 52.6233 55.4029
rfemur -14.6272 0.687119 16.7957
rtibia 22.7862
rfoot -14.9621 -22.0174
rtoes -8.33875
lfemur -11.8737 -5.32531 -19.8415
ltibia 15.6231
lfoot -12.8025 12.4664
ltoes -15.8471
3440
root -0.168755 18.2253 -0.236577 8.62707 2.26429 2.77396
lowerback 9.88412 1.75586 0.122332
upperback 3.62052 2.35334 0.662326
thorax -1.80051 1.16922 0.35113
lowerneck 5.88376 -4.52804 -5.28291
upperneck 3.90869 -6.3791 4.78069
head 0.57116 -3.25219 2.48495
rclavicle 1.11319e-014 3.18055e-015
rhumerus 49.7644 -42.6801 -20.6514
rradius 38.849
rwrist 7.79638
rhand 29.9074 3.50311
rfingers 7.12502
rthumb 53.6237 -15.5862
lclavicle 1.11319e-014 3.18055e-015
lhumerus 37.7633 32.0678 2.59481
lradius 46.9183
lwrist 10.6492
lhand 28.9344 35.731
lfingers 7.12502
lthumb 52.7464 55.3826
rfemur -14.906 0.755396 16.7471
rtibia 23.0021
rfoot -14.9629 -21.9938
rtoes -8.19114
lfemur -12.0593 -5.32052 -19.8703
ltibia 15.7268
lfoot -12.8868 12.5988
ltoes -16.2892
3441
root -0.171064 18.2221 -0.268577 8.7032 2.17936 2.80282
lowerback 10.0914 1.75481 0.081178
upperback 3.66519 2.34669 0.606964
thorax -1.86712 1.16569 0.312001
lowerneck 6.03541 -4.46649 -5.33475
upperneck 3.59759 -6.30258 4.97435
head 0.45081 -3.21681 2.56777
rclavicle 4.96962e-015 -3.18055e-015
rhumerus 51.3577 -42.1643 -21.9399
rradius 38.6336
rwrist 7.91832
rhand 29.8664 3.51948
rfingers 7.12502
rthumb 53.5868 -15.5941
lclavicle 4.96962e-015 -3.18055e-015
lhumerus 39.5888 32.0668 3.8472
lradius 46.6321
lwrist 10.2525
lhand 28.9912 35.7401
lfingers 7.12502
lthumb 52.7977 55.3597
rfemur -15.2642 0.821277 16.7032
rtibia 23.2649
rfoot -14.9699 -21.9697
rtoes -8.19703
lfemur -12.3182 -5.33145 -19.8863
ltibia 15.8467
lfoot -12.9013 12.71
ltoes -16.5783
3442
root -0.174262 18.2188 -0.302762 8.80752 2.14775 2.81203
lowerback 10.2837 1.74731 0.0530024
upperback 3.72177 2.33303 0.572509
thorax -1.91341 1.15869 0.288737
lowerneck 5.93934 -4.39994 -5.43855
upperneck 3.52378 -6.21796 5.19033
head 0.4498 -3.17551 2.6567
rclavicle -4.37326e-014 4.77083e-015
rhumerus 53.0649 -41.6898 -23.3749
rradius 38.3421
rwrist 8.24546
rhand 29.8012 3.71441
rfingers 7.12502
rthumb 53.5281 -15.4377
lclavicle -4.37326e-014 4.77083e-015
lhumerus 41.4016 32.0568 5.1706
lradius 46.397
lwrist 9.92137
lhand 29.0366 35.7976
lfingers 7.12502
lthumb 52.8387 55.3916
rfemur -15.6616 0.879561 16.6905
rtibia 23.5503
rfoot -15.0003 -21.9848
rtoes -8.0545
lfemur -12.6423 -5.36087 -19.8612
ltibia 16.0011
lfoot -12.9011 12.7054
ltoes -16.1127
3443
root -0.175559 18.2159 -0.33747 8.89046 2.11934 2.88208
lowerback 10.4628 1.73414 -0.00788342
upperback 3.82151 2.30738 0.505693
thorax -1.90744 1.14581 0.253159
lowerneck 5.79491 -4.35063 -5.41722
upperneck 3.42587 -6.14529 5.34868
head 0.443747 -3.1379 2.70276
rclavicle 2.04748e-014 -1.59028e-015
rhumerus 54.5427 -41.1578 -24.6486
rradius 38.1653
rwrist 8.4443
rhand 29.8065 4.00811
rfingers 7.12502
rthumb 53.5329 -15.1409
lclavicle 2.04748e-014 -1.59028e-015
lhumerus 43.1425 32.0058 6.40862
lradius 46.2314
lwrist 9.69304
lhand 29.0365 35.8983
lfingers 7.12502
lthumb 52.8387 55.4922
rfemur -16.0565 0.81335 16.6141
rtibia 23.8469
rfoot -14.8791 -21.9717
rtoes -8.32633
lfemur -12.9701 -5.37138 -19.9224
ltibia 16.2185
lfoot -12.8327 12.6741
ltoes -15.9837
3444
root -0.175898 18.2126 -0.372869 9.01756 2.05782 2.93957
lowerback 10.6173 1.7124 -0.115569
upperback 3.89594 2.2664 0.468962
thorax -1.91709 1.1249 0.277095
lowerneck 5.81487 -4.31259 -5.2593
upperneck 3.07699 -6.07551 5.2298
head 0.316204 -3.10151 2.63983
rclavicle -9.93923e-015 3.97569e-015
rhumerus 55.84 -40.5154 -25.7385
rradius 38.1126
rwrist 8.54372
rhand 29.9099 4.28553
rfingers 7.12502
rthumb 53.626 -14.8023
lclavicle -9.93923e-015 3.97569e-015
lhumerus 44.7733 31.902 7.65527
lradius 46.1708
lwrist 9.33701
lhand 29.2127 35.9549
lfingers 7.12502
lthumb 52.9977 55.4487
rfemur -16.503 0.775397 16.5412
rtibia 24.1317
rfoot -14.7102 -21.9648
rtoes -8.62007
lfemur -13.3852 -5.4326 -19.9682
ltibia 16.4992
lfoot -12.7866 12.7719
ltoes -16.0354
3445
root -0.17771 18.21 -0.410509 9.14875 2.01422 2.91876
lowerback 10.7861 1.66795 -0.191252
upperback 3.97342 2.20001 0.493218
thorax -1.93224 1.09114 0.348984
lowerneck 5.59138 -4.26477 -5.43214
upperneck 3.07295 -6.01513 5.41064
head 0.361156 -3.07133 2.72518
rclavicle -1.19271e-015 -6.36111e-015
rhumerus 57.2901 -39.831 -26.896
rradius 37.978
rwrist 8.55152
rhand 30.0871 4.45787
rfingers 7.12502
rthumb 53.7852 -14.5243
lclavicle -1.19271e-015 -6.36111e-015
lhumerus 46.1936 31.7932 8.87857
lradius 46.1599
lwrist 8.94377
lhand 29.5312 35.8579
lfingers 7.12502
lthumb 53.285 55.1682
rfemur -16.9576 0.781754 16.554
rtibia 24.4143
rfoot -14.5997 -21.9588
rtoes -8.66625
lfemur -13.8483 -5.46069 -19.9179
ltibia 16.8206
lfoot -12.7379 12.7967
ltoes -15.8694
3446
root -0.179409 18.2079 -0.447993 9.22367 1.93588 2.86065
lowerback 10.9822 1.67682 -0.126197
upperback 4.08966 2.21672 0.468041
thorax -1.91527 1.09963 0.280649
lowerneck 5.65071 -4.32924 -5.1728
upperneck 2.62144 -6.07393 5.18773
head 0.195597 -3.09824 2.61246
rclavicle 2.74323e-014 3.97569e-015
rhumerus 58.445 -39.2143 -27.8718
rradius 37.8723
rwrist 8.41379
rhand 30.0381 4.42567
rfingers 7.12502
rthumb 53.7412 -14.5858
lclavicle 2.74323e-014 3.97569e-015
lhumerus 47.7405 31.579 10.0965
lradius 46.0615
lwrist 8.90051
lhand 29.4997 35.878
lfingers 7.12502
lthumb 53.2566 55.2065
rfemur -17.3369 0.81153 16.6063
rtibia 24.6659
rfoot -14.5265 -21.8708
rtoes -8.60152
lfemur -14.2737 -5.44571 -19.8327
ltibia 17.2026
lfoot -12.8024 12.7461
ltoes -15.2665
3447
root -0.179729 18.2039 -0.483699 9.29082 1.84705 2.82366
lowerback 11.211 1.70392 -0.0642295
upperback 4.19147 2.25665 0.417294
thorax -1.93007 1.11983 0.183291
lowerneck 5.90074 -4.23513 -5.12166
upperneck 2.07825 -5.94225 5.41012
head -0.0216484 -3.03728 2.6936
rclavicle -1.27222e-014 8.74653e-015
rhumerus 59.4101 -38.5936 -28.7955
rradius 37.8827
rwrist 8.17583
rhand 29.9686 4.42575
rfingers 7.12502
rthumb 53.6788 -14.6272
lclavicle -1.27222e-014 8.74653e-015
lhumerus 49.2948 31.254 11.2937
lradius 46.041
lwrist 8.99066
lhand 29.582 35.8821
lfingers 7.12502
lthumb 53.3307 55.1628
rfemur -17.707 0.773541 16.6383
rtibia 24.9261
rfoot -14.4146 -21.7292
rtoes -8.9774
lfemur -14.6914 -5.34759 -19.7911
ltibia 17.6118
lfoot -12.7756 12.6807
ltoes -15.199
3448
root -0.180626 18.2015 -0.519777 9.41845 1.74938 2.74594
lowerback 11.4508 1.7228 -0.0136265
upperback 4.24378 2.28564 0.394785
thorax -2.00348 1.13427 0.121369
lowerneck 6.18841 -4.13923 -4.96572
upperneck 1.3771 -5.79615 5.38861
head -0.307299 -2.96794 2.67891
rclavicle -1.78906e-014 3.97569e-015
rhumerus 60.4358 -37.8877 -29.8734
rradius 37.9072
rwrist 8.00421
rhand 29.9543 4.51559
rfingers 7.12502
rthumb 53.6658 -14.5459
lclavicle -1.78906e-014 3.97569e-015
lhumerus 50.8113 30.8502 12.5862
lradius 46.2649
lwrist 8.99941
lhand 29.6697 35.389
lfingers 7.12502
lthumb 53.4097 54.6184
rfemur -18.1467 0.756905 16.7109
rtibia 25.1912
rfoot -14.391 -21.5751
rtoes -8.9862
lfemur -15.2003 -5.22623 -19.6938
ltibia 18.0519
lfoot -12.8065 12.6484
ltoes -15.3885
